<svg xmlns="http://www.w3.org/2000/svg" width="2000" height="889"><path d="m836.75 877.055-826.25.295v-1.989c0-1.093 1.318-8.185 2.928-15.758 1.611-7.573 4.115-19.62 5.565-26.77s3.928-19.3 5.508-27 4.205-20.525 5.833-28.5 4.18-20.575 5.668-28c1.49-7.425 3.976-19.575 5.526-27s4.192-20.25 5.871-28.5 4.233-20.85 5.674-28c1.44-7.15 3.73-18.175 5.089-24.5 1.357-6.325 3.088-14.875 3.846-19s3.21-16.275 5.45-27 4.712-22.875 5.494-27 3.266-16.275 5.518-27c2.253-10.725 4.728-22.875 5.5-27s3.261-16.275 5.531-27 4.72-22.65 5.444-26.5 2.709-13.75 4.409-22 4.919-23.775 7.15-34.5c2.233-10.725 6.052-29.4 8.486-41.5s5.343-26.5 6.465-32c1.12-5.5 3.148-15.4 4.505-22s3.82-18.525 5.475-26.5 4.346-21.025 5.982-29c1.635-7.975 4.156-20.35 5.6-27.5 1.446-7.15 3.912-19.075 5.48-26.5a4458 4458 0 0 0 5.999-29c1.73-8.525 4.627-21.575 6.439-29 1.811-7.425 4.373-16.425 5.692-20s4.96-11.324 8.091-17.221l5.693-10.722 5.176-6.778c2.847-3.728 7.93-9.62 11.295-13.092s9.043-8.697 12.618-11.61 8.75-6.846 11.5-8.738 8.15-5.205 12-7.362 9.25-4.98 12-6.276 8.375-3.659 12.5-5.253 12-4.265 17.5-5.937c5.5-1.671 15.824-4.19 22.942-5.598s18.369-3.288 25-4.179L335 16.95l826.75-.315 826.75-.315v1.987c0 1.093-1.326 8.184-2.948 15.758-1.62 7.573-4.33 20.52-6.02 28.77a7502 7502 0 0 1-5.48 26.5 6694 6694 0 0 0-5.573 27c-1.74 8.524-4.418 21.574-5.95 29a7877 7877 0 0 0-5.513 27c-1.5 7.424-3.996 19.574-5.547 27a4815 4815 0 0 0-5.343 26c-1.387 6.874-3.9 19.25-5.582 27.5-1.683 8.25-4.386 21.3-6.007 29s-4.09 19.624-5.487 26.5l-5.587 27.5c-1.675 8.25-4.372 21.3-5.993 29-1.62 7.7-4.035 19.4-5.366 26-1.332 6.6-3.837 18.974-5.567 27.5-1.73 8.524-4.252 20.9-5.605 27.5-1.352 6.6-3.768 18.3-5.369 26s-4.335 20.974-6.079 29.5a16827 16827 0 0 1-5.544 27c-1.307 6.324-3.752 18.25-5.434 26.5s-4.359 21.3-5.948 29-4.08 19.85-5.538 27c-1.457 7.15-3.99 19.524-5.628 27.5-1.638 7.974-4.314 21.024-5.946 29-1.632 7.974-4.079 19.9-5.436 26.5s-3.84 18.75-5.515 27-4.401 21.25-6.057 28.89l-3.01 13.89-3.589 9.61c-1.973 5.285-4.939 12.31-6.591 15.61s-5.017 9.122-7.478 12.938-5.89 8.706-7.622 10.866c-1.731 2.16-6.943 7.737-11.582 12.393l-8.433 8.465-8.115 5.768c-4.464 3.172-9.272 6.398-10.685 7.168s-6.79 3.516-11.95 6.1c-5.161 2.584-12.45 5.873-16.2 7.308-3.749 1.436-11.174 3.88-16.5 5.43-5.325 1.552-11.033 3.08-12.683 3.395-1.65.316-7.378 1.501-12.729 2.634s-16.15 2.825-24 3.76L1663 876.762zM542.785 663.333h21.501l.607-1.581c.334-.87.607-2.916.607-4.546s.709-7.555 1.575-13.168 2.899-18.53 4.517-28.705 4.042-25.475 5.386-34c1.343-8.525 2.983-19.437 3.643-24.25s1.467-8.75 1.792-8.75 1.715 2.127 3.089 4.726l2.498 4.726 5.544 5.585 5.543 5.585 6.824 2.732 6.824 2.732 8.132 1.054 8.133 1.054 10.323-.633 10.323-.633 11.177-2.893L672 569.476l6-2.739c3.3-1.506 9.15-4.79 13-7.298l7-4.56 6.527-6.523c3.59-3.587 8.652-9.34 11.25-12.784 2.598-3.443 4.723-6.512 4.723-6.82 0-.307 1.276-2.44 2.836-4.738 1.56-2.3 4.753-8.68 7.095-14.18s6.002-15.4 8.134-22l3.875-12 2.003-10.395c1.102-5.717 2.52-15.167 3.15-21l1.147-10.606-.662-9-.662-9-2.087-9-2.087-9-3.378-6.738-3.377-6.738-6.525-6.917-6.525-6.917-7.718-3.989-7.719-3.99-8.5-2.035-8.5-2.035-8.5-.624-8.5-.624-9.469 1.088-9.468 1.088-7.729 1.974-7.728 1.973-6.714 3.107c-3.692 1.71-9.065 4.612-11.94 6.451s-5.84 3.954-6.589 4.701-2.544 2.131-3.988 3.075l-2.625 1.717 1.835-8.783c1.01-4.831 1.854-9.346 1.876-10.034l.039-1.25h-36.667l-3.215 20.25a6625 6625 0 0 1-6.203 38.25c-1.644 9.9-4.123 24.75-5.51 33-1.385 8.25-3.857 22.875-5.493 32.5a3101 3101 0 0 1-6.007 34 61166 61166 0 0 1-5.432 29.5c-1.32 7.15-3.802 20.65-5.517 30s-4.472 24.2-6.125 33c-1.654 8.8-4.345 22.75-5.98 31s-3.22 16.013-3.521 17.25l-.547 2.25zm92.564-115.618-8.349.502-5.457-.964-5.458-.963-5.542-2.53-5.543-2.531-3.872-3.698-3.873-3.698-2.235-5c-1.23-2.75-2.808-7.421-3.509-10.38l-1.273-5.382.51-8.619.51-8.619 2.577-13.5c1.417-7.425 3.962-21.375 5.654-31 1.693-9.625 4.256-23.727 5.696-31.34l2.618-13.839 5.732-4.77c3.153-2.624 8.148-6.14 11.099-7.815l5.366-3.044 7-2.167 7-2.167 9-.528 9-.528 7.328 1.561 7.329 1.562 5.171 2.382 5.172 2.382 4.337 4.36 4.336 4.36 2.34 4.617c1.287 2.54 3.094 7.51 4.016 11.046l1.677 6.428-.513 19-.514 19-2.568 11.23c-1.413 6.178-4.102 15.628-5.976 21l-3.407 9.77-4.172 7.909c-2.295 4.35-5.834 10.227-7.864 13.062s-5.267 6.506-7.192 8.16a163 163 0 0 1-7.164 5.74l-3.664 2.736-8.487 2.886-8.487 2.887zM843 575.206l11 .126 11-1.004c6.05-.551 15.95-1.7 22-2.552s16.501-2.76 23.225-4.24l12.225-2.69.61-4.506c.334-2.479 1.707-9.857 3.05-16.397l2.443-11.89-.54-.54-.538-.538-3.738 1.805c-2.055.993-8.458 3.36-14.227 5.262l-10.49 3.457-11.01 2.133-11.01 2.133-17.5.034-17.5.034-6-1.916c-3.3-1.054-8.154-2.983-10.786-4.285l-4.786-2.37-3.95-3.568-3.95-3.568-3.082-5.387-3.082-5.387-1.932-6.756-1.932-6.757-.014-12.503-.014-12.503 1.716-11.154 1.715-11.154 15.049-.703 15.048-.704 55.626.358 55.626.357 1.68-7.125c.924-3.918 2.336-12.018 3.138-18l1.46-10.875.03-9.148.03-9.149-1.583-6.829-1.584-6.83-2.619-4.522c-1.44-2.487-3.978-6.092-5.64-8.01s-4.628-4.623-6.592-6.01c-1.965-1.387-5.822-3.719-8.572-5.18l-5-2.66-8.736-2.105-8.736-2.105-10.764-1.03L883 357.227l-10 .652-10 .65-12 2.305-12 2.304-7.5 3c-4.125 1.648-10.425 4.656-14 6.683-3.575 2.026-8.525 5.325-11 7.331-2.475 2.005-6.76 5.904-9.523 8.664s-6.848 7.718-9.08 11.018-5.654 9.15-7.604 13-4.49 9.25-5.646 12-3.255 8.375-4.666 12.5-3.629 12-4.929 17.5-3.08 14.554-3.957 20.12l-1.595 10.119.015 14.88.015 14.881 1.52 6.5c.835 3.575 2.434 8.975 3.551 12 1.118 3.025 3.185 7.525 4.593 10s4.416 6.46 6.683 8.856c2.268 2.395 6.373 6.03 9.123 8.077s7.646 4.927 10.88 6.399l5.879 2.676 8.197 1.982c4.508 1.09 11.313 2.38 15.12 2.87 3.809.488 11.874.944 17.924 1.013m18.836-140.873c-27.685 0-50.336-.198-50.336-.44s1.181-3.73 2.625-7.75 3.98-10.004 5.634-13.298l3.01-5.988 6.616-6.579 6.615-6.58 6.5-3.107c3.575-1.71 8.3-3.571 10.5-4.137s8.5-1.315 14-1.667l10-.639 7.68.987 7.679.987 5.58 2.555 5.581 2.555 3.061 3.3c1.684 1.816 3.69 4.49 4.46 5.942l1.397 2.64.923 5.86.923 5.86-1.056 9.75-1.056 9.75zm299.17 140.878 11.006.122 12.494-1.48c6.872-.815 16.019-2.164 20.327-3s11.283-2.492 15.5-3.683 8.032-2.48 8.478-2.862 1.637-4.921 2.648-10.085c1.01-5.165 2.283-12.09 2.828-15.39s.827-6.176.626-6.392-.938.063-1.639.62c-.7.556-5.607 2.62-10.903 4.588l-9.63 3.576-13.712 2.657-13.712 2.657-11.658-.398-11.659-.398-6.622-2.297-6.622-2.296-5.117-4.476-5.117-4.477-3.394-6.182-3.395-6.182-1.616-8.27-1.617-8.27.01-10.73.01-10.73 1.965-13 1.964-13 2.079-7c1.143-3.85 2.437-8.35 2.874-10s2.272-6.375 4.076-10.5 5.021-10.5 7.15-14.167l3.87-6.668 4.755-4.926 4.754-4.925 5.034-3.123 5.035-3.123 6.465-1.991c3.556-1.095 9.84-2.517 13.966-3.16l7.5-1.169 11 .552 11 .552 13 2.602 13 2.602 5.287 1.972c2.908 1.085 5.415 1.972 5.57 1.972s.853-3.712 1.55-8.25a838 838 0 0 1 2.758-16.589c.819-4.587 1.292-8.537 1.05-8.778-.24-.241-4.148-.862-8.683-1.379s-16.86-1.435-27.388-2.04l-19.144-1.1-13.5 1.035-13.5 1.036-10 2.101-10 2.102-6.44 2.576c-3.542 1.417-8.73 3.973-11.53 5.681-2.798 1.708-6.36 4.005-7.917 5.105-1.555 1.1-6.275 5.392-10.487 9.538l-7.66 7.537-4.275 6.263c-2.352 3.445-6.42 10.629-9.04 15.963l-4.764 9.7-3.652 10.5c-2.008 5.774-4.812 15.224-6.231 21l-2.58 10.5-.936 9.5-.937 9.5.01 12.5.01 12.5.945 7.271.944 7.272 2.996 7.48 2.995 7.48 3.46 5.408 3.459 5.408 5.5 5.414 5.502 5.414 5.819 3.076 5.819 3.075 7.645 2.124c4.205 1.168 10.28 2.508 13.5 2.978s10.807.91 16.86.977zm164.494-.369 13.5-.387 8.5-2.175 8.5-2.176 5.5-2.6c3.025-1.43 7.975-4.253 11-6.274s7.707-5.86 10.405-8.535 6.698-7.236 8.89-10.138 4.117-5.145 4.279-4.983-.343 4.786-1.121 10.276-1.423 12.796-1.434 16.233l-.019 6.25h36.707l.56-14.25.562-14.25 2.619-18.5c1.44-10.175 3.766-25.25 5.17-33.5 1.402-8.25 3.84-22.2 5.419-31a6558 6558 0 0 1 5.554-30.5l2.685-14.5.09-12.524.09-12.525-2.832-5.789-2.832-5.788-3.84-3.687-3.84-3.687-6.306-3.195-6.305-3.195-9.397-2.09-9.397-2.09-12.937-.984-12.938-.985-16.665 1.031c-9.166.567-22.066 1.687-28.666 2.489l-12 1.457-8.178.031-8.178.031-1.19 5.75c-.655 3.162-2.474 10.676-4.042 16.697s-2.706 11.092-2.528 11.27 4.551-.815 9.72-2.206c5.168-1.391 16.146-3.679 24.396-5.084l15-2.554 13.5-.557 13.5-.556 8.696 1.524 8.696 1.524 5.804 2.865 5.804 2.865 3.25 4.844 3.25 4.844-.046 7.637-.046 7.637-1.723 8.38-1.722 8.381-35.982.13-35.981.13-11.777 3.229c-6.477 1.776-13.649 4.133-15.937 5.24-2.29 1.105-4.579 2.01-5.088 2.01s-4.363 2.137-8.562 4.748l-7.636 4.748-6.014 6.002c-3.308 3.301-7.533 8.252-9.39 11.002s-4.875 8.495-6.706 12.766l-3.329 7.767-1.527 8.733-1.528 8.734v18.324l1.46 7.628 1.46 7.629 2.707 4.975c1.49 2.736 4.222 6.745 6.074 8.907l3.365 3.933 5.982 3.633 5.98 3.633 6.847 1.938c3.765 1.065 9.496 2.355 12.736 2.866l5.89.93 13.5-.387zm12.5-27.962-8 .417-5.298-1.35c-2.915-.742-7.337-2.397-9.827-3.678l-4.528-2.329-2.471-2.937c-1.36-1.615-3.436-4.79-4.614-7.053l-2.143-4.117-.42-9.613-.42-9.613 1.694-5.83c.933-3.208 3.12-8.773 4.861-12.367l3.166-6.536 6.062-6.02 6.062-6.02 6.438-3.1 6.438-3.1 8-1.9 8-1.9h50l1.582.653 1.581.654-1.33 7.846c-.733 4.316-2.48 12.121-3.881 17.346-1.402 5.225-3.878 12.906-5.5 17.069-1.624 4.163-2.952 7.843-2.952 8.178s-1.643 3.369-3.652 6.74l-3.652 6.131-5.997 5.941c-3.298 3.268-6.36 5.941-6.803 5.941-.444 0-2.466 1.126-4.493 2.501l-3.685 2.501-8.11 2.564-8.108 2.563zm325.5 28.32 9.5.12 9-1.462c4.95-.803 11.25-2.097 14-2.875 2.75-.779 7.7-2.799 11-4.49l6-3.074 5.162-4.543 5.161-4.543 5.436-7.25c2.99-3.987 5.698-7.925 6.017-8.75l.58-1.5-.505 5c-.277 2.75-.9 7.25-1.383 10s-1.176 8.038-1.54 11.75l-.661 6.75h39.233v-13.5l2.989-25.5c1.643-14.025 4.074-32.7 5.401-41.5s3.376-21.4 4.552-28c1.177-6.6 3.26-18.525 4.63-26.5s3.846-21.925 5.5-31c1.655-9.075 4.303-23.475 5.885-32s4.041-21.8 5.464-29.5 3.974-21.2 5.667-30 4.167-21.175 5.496-27.5 2.416-11.837 2.414-12.25v-.75h-42.803l-.633 6.25c-.347 3.438-1.985 14.8-3.64 25.25s-4.353 27.1-5.995 37-3.226 19.5-3.518 21.334l-.533 3.333-1.689-.718c-.929-.395-5.964-1.791-11.189-3.103l-9.5-2.386-13-1.012-13-1.013-11 1.025-11 1.025-10 2.528-10 2.528-9.5 4.633-9.5 4.634-7 5.182-7 5.183-6.045 6.481c-3.325 3.565-8.128 9.461-10.674 13.103l-4.629 6.622-5.436 11.31c-2.989 6.221-6.627 14.461-8.084 18.311s-4.027 12.385-5.71 18.966l-3.062 11.965-1.508 15.535-1.508 15.534 1.133 12.5 1.132 12.5 1.339 4.5c.736 2.475 2.289 6.885 3.45 9.8l2.112 5.299 3.85 5.21 3.85 5.212 4.395 3.6 4.395 3.6 6 2.98c3.3 1.638 8.836 3.756 12.302 4.705s9.091 2.09 12.5 2.534 10.473.86 15.698.926zm17.05-28.372-7.55.4-5.096-.917c-2.803-.504-7.289-1.857-9.968-3.005l-4.87-2.088-4.1-3.358-4.098-3.359-3.046-5.834-3.046-5.834-1.388-6.5-1.388-6.5.118-13 .117-13 1.612-11.5 1.612-11.5 2.506-8c1.378-4.4 2.512-8.55 2.52-9.225.01-.673 1.369-4.273 3.023-8 1.655-3.726 4.42-9.475 6.144-12.775s4.947-8.444 7.161-11.432c2.215-2.988 6.16-7.488 8.768-10 2.607-2.512 6.755-5.807 9.217-7.323l4.476-2.754 7.863-2.721 7.863-2.72 16.5-.01h16.5l9.5 2.635c5.225 1.45 10.773 3.13 12.328 3.735l2.829 1.1-.553 2.745c-.303 1.51-1.492 8.145-2.64 14.745-1.15 6.6-3.413 19.2-5.031 28s-4.104 22.075-5.524 29.5-3.478 16.875-4.572 21a1461 1461 0 0 1-3.43 12.697c-.793 2.858-2.68 7.808-4.194 11s-4.164 7.828-5.888 10.303-4.64 5.904-6.48 7.62c-1.84 1.715-5.82 4.763-8.845 6.773l-5.5 3.655-7.95 2.523-7.949 2.523zM208.798 570.333h24.298l1.743-10.75c.959-5.912 2.831-17.275 4.161-25.25l5.5-33a9704 9704 0 0 1 5.649-33.5c1.41-8.25 3.652-21.047 4.981-28.439s2.669-13.692 2.977-14l.56-.56h130.667l.725.725.726.725-1.133 5.775c-.623 3.176-2.466 12.974-4.096 21.774s-4.369 23.65-6.088 33a4804 4804 0 0 1-5.522 29.5c-1.319 6.875-3.988 21.275-5.93 32-1.944 10.725-3.53 20.063-3.524 20.75l.01 1.25h48.795l1.079-6.25c.594-3.437 1.55-9.625 2.123-13.75s1.957-12.9 3.074-19.5 3.349-19.65 4.96-29 4.306-25.325 5.99-35.5a6797 6797 0 0 1 5.553-33 2183 2183 0 0 1 5.424-30c1.613-8.525 4.3-22.925 5.971-32s4.175-22.8 5.563-30.5c1.389-7.7 3.921-21.65 5.627-31s3.86-20.262 4.788-24.25l1.685-7.25h-49.405l-.672 4.75c-.37 2.613-1.563 9.925-2.652 16.25s-3.07 17.575-4.402 25-3.767 21.6-5.41 31.5-3.738 23.006-4.654 29.123l-1.666 11.123-36.262.734-36.263.734-30.373-.721c-16.705-.397-30.466-.8-30.579-.896s.456-3.982 1.264-8.636c.809-4.653 2.339-12.736 3.4-17.96 1.06-5.226 3.072-15.576 4.47-23 1.397-7.426 2.98-16.65 3.517-20.5s1.663-10.263 2.502-14.25 2.43-12.387 3.538-18.666c1.107-6.278 2.286-12.128 2.62-13l.609-1.585h-49.006l-1.57 8.75c-.863 4.813-2.014 11.675-2.558 15.25-.543 3.575-2.368 15.05-4.055 25.5s-4.178 25.975-5.535 34.5l-5.492 34.5c-1.663 10.45-4.407 26.65-6.098 36s-4.14 22.625-5.44 29.5c-1.302 6.875-3.782 19.925-5.511 29s-4.253 21.9-5.607 28.5-2.852 14.25-3.328 17c-.475 2.75-2.023 10.682-3.44 17.626-1.415 6.944-2.574 13.357-2.574 14.25v1.624h24.297zm268.98 0h21.509l.607-1.581c.334-.87.607-3.152.607-5.072s1.353-11.895 3.006-22.168a9937 9937 0 0 1 6.07-37.179 9419 9419 0 0 1 5.53-33c1.357-7.975 3.77-21.25 5.362-29.5s4.037-21.075 5.432-28.5 4.139-21.55 6.097-31.391 3.804-18.287 4.103-18.77l.542-.878-21.751.27-21.752.27-1.812 13c-.996 7.15-3.175 21.324-4.84 31.5-1.667 10.174-4.187 25.7-5.601 34.5s-3.88 22.974-5.48 31.5a85329 85329 0 0 1-5.449 29 5056 5056 0 0 1-5.569 29 3900 3900 0 0 1-4.97 25c-1.066 5.224-2.211 10.512-2.545 11.75l-.606 2.25zm503.073 0h21.35l.642-9.034c.352-4.968 1.56-14.98 2.685-22.25a5982 5982 0 0 1 5.114-32.216c1.689-10.45 4.828-27.843 6.975-38.652s4.575-21.554 5.394-23.876c.82-2.323 1.49-4.84 1.49-5.593s1.605-4.86 3.567-9.124 5.618-10.796 8.125-14.513l4.558-6.758 6.101-5.649 6.102-5.648 7.523-3.593 7.524-3.594 11.5.06 11.5.06 5.654 1.69c3.11.93 5.922 1.69 6.25 1.69s.596-1.063.596-2.363 1.125-7.886 2.5-14.637 2.5-12.56 2.5-12.908-3.262-1.625-7.25-2.838c-3.987-1.212-9.5-2.482-12.25-2.822l-5-.617-6.5 1.15c-3.575.632-8.89 2.028-11.813 3.101-2.922 1.074-7.747 3.51-10.721 5.413-2.975 1.902-7.603 5.61-10.283 8.24-2.681 2.63-7.19 7.93-10.021 11.78-2.83 3.85-5.79 7.9-6.578 9l-1.432 2 .87-4c.478-2.2 1.81-9.4 2.96-16s2.329-12.787 2.621-13.75l.532-1.75H995.5v2.411c0 1.326-1.125 9.313-2.5 17.75a9148 9148 0 0 0-5.041 31.34c-1.397 8.8-3.876 24.1-5.509 34s-4.112 24.075-5.51 31.5-3.879 20.475-5.514 29a7068 7068 0 0 1-6.035 31c-1.683 8.525-3.697 18.592-4.476 22.372s-1.415 7.268-1.415 7.75v.878zm506.82 0h21.83v-13.361l2.516-16.57a3076 3076 0 0 1 5.072-32.069c1.407-8.525 3.16-19.325 3.895-24 .737-4.675 2.687-14.8 4.335-22.5s3.707-16.025 4.575-18.5 1.584-5.071 1.592-5.77c.01-.699 1.87-5.192 4.136-9.985l4.12-8.715 5.437-7.223 5.436-7.223 5.95-4.472c3.272-2.46 8.534-5.725 11.693-7.254l5.743-2.782 12.5.086 12.5.086 4.92 1.58 4.921 1.58.83-.512.829-.513.042-3.19c.023-1.756 1.093-8.286 2.379-14.513l2.337-11.32-2.63-1.03c-1.445-.566-4.878-1.737-7.628-2.603l-5-1.575-9 .023-9 .023-7.334 2.58-7.335 2.581-5.507 3.32-5.507 3.322-7.16 7.5-7.16 7.5-3.847 5.818c-2.116 3.2-3.979 5.675-4.14 5.5s.99-6.843 2.556-14.818 2.867-15.513 2.891-16.75l.043-2.25h-37v.637c0 .35-.922 6.763-2.05 14.25s-3.39 21.938-5.029 32.113c-1.64 10.175-4.329 26.6-5.976 36.5s-4.133 24.075-5.521 31.5a10097 10097 0 0 1-5.48 29 4900 4900 0 0 1-5.935 30.5c-1.64 8.25-3.81 19.162-4.825 24.25l-1.844 9.25zM520.072 326.311l6.072.022 4.826-1.644 4.826-1.645 4.272-4.332 4.271-4.333 2.25-5.773 2.25-5.773.08-8.5.081-8.5-2-3.319-2-3.319-3.482-2.156-3.482-2.156H523l-5.118 2.292-5.119 2.291-2.97 3.184-2.972 3.183-2.333 5.5-2.333 5.5-.441 8.568-.441 8.567 2.172 4.258 2.172 4.258 4.192 1.903 4.191 1.902z" style="fill:#b3131b"/></svg>