<?xml version="1.0" encoding="iso-8859-1"?>
<!-- Generator: Adobe Illustrator 18.1.1, SVG Export Plug-In . SVG Version: 6.00 Build 0)  -->
<svg version="1.1" id="Capa_1" xmlns="http://www.w3.org/2000/svg" xmlns:xlink="http://www.w3.org/1999/xlink" x="0px" y="0px"
	 viewBox="0 0 273.163 273.163" style="enable-background:new 0 0 273.163 273.163;" xml:space="preserve">
<g>
	<g>
		<path style="fill:#010002;" d="M139.626,56.934c-2.132-2.089-5.553-2.061-7.658,0.054l-92.236,93.372
			c-1.017,1.017-0.903,2.399-0.903,3.835v97.903c0,3.008,1.077,9.187,4.079,9.187h188.556c3.002,0,3.171-6.179,3.171-9.187v-97.903
			c0-1.469,0.544-2.866-0.506-3.889L139.626,56.934z M223.758,250.407h-52.123h-71.616H49.708v-93.965l85.72-87.961l88.33,88.004
			V250.407z"/>
		<path style="fill:#010002;" d="M271.578,145.825L139.681,13.476c-1.023-1.028-2.497-1.534-3.873-1.599
			c-1.452,0.005-3.242,0.593-4.259,1.632L82.342,63.162V34.194c0-2.997-1.643-1.349-4.645-1.349H45.068
			c-3.002,0-6.239-1.648-6.239,1.354v73.232L1.463,145.852c-2.105,2.148-1.871,5.586,0.267,7.696
			c2.143,2.105,5.684,2.072,7.794-0.071l39.335-39.972l0.033-0.005l86.949-88.456l128.025,128.46
			c1.061,1.066,2.464,1.599,3.856,1.599c1.387,0,2.779-0.528,3.84-1.588C273.688,151.395,273.699,147.957,271.578,145.825z
			 M49.708,43.723h21.756v30.508L49.708,96.362V43.723z"/>
	</g>
</g>
<g>
</g>
<g>
</g>
<g>
</g>
<g>
</g>
<g>
</g>
<g>
</g>
<g>
</g>
<g>
</g>
<g>
</g>
<g>
</g>
<g>
</g>
<g>
</g>
<g>
</g>
<g>
</g>
<g>
</g>
</svg>
